<mxfile host="app.diagrams.net" modified="2024-05-24T03:17:38.925Z" agent="Mozilla/5.0 (Windows NT 10.0; Win64; x64) AppleWebKit/537.36 (KHTML, like Gecko) Chrome/124.0.0.0 Safari/537.36" version="24.4.7" etag="ape5H9gQGoKjHnGcxeDd" type="github">
  <diagram name="PÃ¡gina-1" id="ePx6Cf_GH81Xt21gga2w">
    <mxGraphModel>
      <root>
        <mxCell id="0" />
        <mxCell id="1" parent="0" />
      </root>
    </mxGraphModel>
  </diagram>
</mxfile>
